<?xml version="1.0" standalone="no"?>
<!DOCTYPE svg PUBLIC "-//W3C//DTD SVG 20010904//EN"
 "http://www.w3.org/TR/2001/REC-SVG-20010904/DTD/svg10.dtd">
<svg version="1.0" xmlns="http://www.w3.org/2000/svg"
 width="1004.000000pt" height="271.000000pt" viewBox="0 0 1004.000000 271.000000"
 preserveAspectRatio="xMidYMid meet">
<metadata>
Created by potrace 1.15, written by Peter Selinger 2001-2017
</metadata>
<g transform="translate(0.000000,271.000000) scale(0.100000,-0.100000)"
fill="#000000" stroke="none">
<path d="M5493 2263 c-7 -2 -13 -11 -13 -18 0 -16 -31 -28 -53 -20 -8 4 -18 2
-22 -4 -3 -6 -15 -11 -27 -11 -30 0 -78 -32 -78 -52 0 -20 15 -24 25 -8 5 8
11 8 20 0 7 -6 18 -9 25 -8 22 5 22 -19 0 -25 -12 -3 -20 -14 -21 -29 0 -12
-9 -36 -20 -53 -32 -50 -33 -56 -20 -109 6 -28 16 -71 21 -95 6 -25 18 -56 28
-69 9 -14 22 -34 29 -45 6 -11 25 -32 41 -46 16 -14 32 -33 35 -42 3 -9 34
-33 69 -53 93 -54 102 -60 111 -73 4 -7 15 -13 22 -13 8 0 14 -6 13 -12 -2 -7
2 -12 9 -11 7 2 17 -6 23 -17 6 -11 16 -20 23 -20 13 0 34 -22 119 -123 36
-44 48 -66 48 -91 0 -55 -34 -70 -160 -70 -89 -1 -112 2 -152 21 -26 13 -52
32 -58 44 -7 12 -18 18 -26 15 -10 -4 -14 2 -15 19 -2 38 -3 40 -19 57 -23 22
-62 29 -83 14 -17 -13 -17 -16 5 -52 12 -22 36 -57 52 -79 17 -22 32 -42 33
-44 1 -2 9 1 17 8 8 7 16 8 18 4 11 -26 244 -83 271 -66 7 4 32 9 57 11 48 3
100 41 100 73 0 10 4 20 8 23 9 6 3 76 -7 76 -3 0 -17 20 -31 45 -14 25 -30
45 -37 45 -7 0 -13 9 -13 20 0 11 -3 20 -7 20 -5 0 -24 14 -43 30 -19 16 -38
30 -42 30 -4 0 -10 9 -13 20 -3 11 -13 20 -21 20 -8 0 -14 6 -14 13 0 11 -59
56 -129 98 -14 8 -30 25 -36 37 -5 12 -19 25 -29 28 -11 4 -24 10 -30 15 -39
33 -66 59 -66 65 0 4 -14 29 -31 57 -26 42 -31 61 -31 111 0 53 3 62 26 79 14
10 26 24 26 31 0 15 40 54 40 40 1 -5 8 0 18 11 9 11 33 28 54 37 30 14 37 23
43 57 7 43 -7 81 -30 81 -7 0 -19 2 -27 4 -7 3 -19 2 -25 -1z"/>
<path d="M7265 1838 c-7 -19 -17 -47 -20 -64 -4 -16 -9 -36 -12 -44 -3 -8 -7
-28 -9 -45 -2 -16 -6 -46 -8 -66 -3 -19 -1 -51 5 -70 6 -19 10 -54 10 -78 0
-25 5 -51 10 -58 6 -7 9 -19 6 -28 -4 -8 -2 -17 2 -20 5 -2 9 -23 9 -45 1 -23
8 -47 17 -56 9 -9 14 -21 12 -28 -5 -15 -68 -45 -83 -39 -7 2 -15 0 -18 -5 -3
-6 -14 -8 -24 -5 -13 3 -18 11 -15 26 5 25 -22 54 -106 116 -56 41 -60 42
-118 7 -46 -28 -63 -74 -47 -132 6 -21 99 -68 126 -63 7 2 22 -2 33 -8 21 -12
119 -11 147 1 9 4 21 5 27 2 5 -3 11 -2 13 3 1 5 19 12 39 16 30 6 41 2 77
-27 23 -18 44 -43 48 -54 4 -17 13 -22 39 -22 18 0 42 -3 53 -6 21 -7 45 14
34 30 -4 5 -24 18 -44 27 -24 11 -43 30 -54 52 l-16 34 64 62 c47 47 64 58 66
46 2 -11 13 -17 32 -17 19 0 33 -7 39 -19 6 -10 23 -23 38 -29 29 -11 59 -32
100 -70 13 -12 29 -20 34 -17 5 4 9 2 9 -3 0 -23 52 -44 91 -37 44 8 50 21 15
35 -13 5 -27 19 -31 31 -6 17 -9 19 -16 8 -7 -11 -9 -10 -9 3 0 10 -12 25 -27
33 -16 9 -46 26 -68 38 -35 19 -40 26 -37 52 2 17 15 41 28 56 24 25 31 53 16
63 -5 3 -32 -6 -61 -20 -28 -14 -64 -24 -79 -22 -29 3 -72 57 -72 92 0 12 -9
32 -20 46 -11 14 -20 37 -20 52 0 15 -4 29 -9 32 -4 3 -11 20 -15 37 -3 18
-15 38 -25 46 -11 7 -22 26 -26 43 -4 16 -21 45 -38 63 -18 19 -36 41 -42 50
-5 8 -20 18 -33 22 -19 5 -25 1 -37 -27z m98 -93 c9 -5 18 -21 20 -33 2 -13
15 -38 29 -55 23 -29 44 -81 40 -99 -1 -5 3 -8 8 -8 6 0 10 -13 10 -29 0 -17
5 -33 10 -36 15 -9 12 -41 -5 -55 -11 -9 -12 -16 -5 -26 8 -9 7 -15 -6 -22
-13 -7 -14 -13 -5 -31 10 -18 9 -22 -13 -31 -13 -5 -27 -18 -31 -29 -5 -15
-15 -21 -37 -21 -26 0 -30 3 -25 22 4 13 0 26 -9 33 -16 11 -35 71 -38 116 0
14 -6 32 -12 40 -15 20 -17 84 -4 108 7 15 7 21 0 21 -7 0 -9 17 -5 48 3 26 5
55 6 65 0 10 4 30 9 43 9 23 10 24 28 7 10 -10 26 -22 35 -28z"/>
<path d="M3012 1709 c3 -8 25 -16 54 -20 27 -3 58 -9 69 -14 38 -16 130 -80
150 -105 11 -13 28 -31 37 -39 10 -9 18 -20 18 -27 0 -6 9 -19 20 -29 11 -10
17 -22 14 -27 -4 -5 3 -16 13 -23 18 -13 46 -80 48 -115 1 -8 6 -26 12 -40 6
-14 16 -48 23 -77 9 -41 9 -55 -2 -72 -11 -18 -11 -23 1 -30 12 -8 12 -13 -3
-36 -9 -14 -15 -32 -13 -38 2 -7 -2 -27 -10 -44 -7 -18 -10 -33 -6 -33 8 0
-21 -27 -68 -63 -20 -15 -47 -27 -60 -27 -13 0 -35 -6 -49 -13 -16 -8 -43 -10
-75 -6 -27 3 -66 2 -85 -2 -19 -5 -51 -4 -70 1 -44 12 -126 22 -165 21 -43 -1
-155 27 -190 48 -48 28 -83 34 -108 16 -12 -8 -28 -15 -35 -15 -7 0 -20 -7
-28 -15 -16 -15 -58 -20 -148 -15 -55 2 -106 32 -106 62 0 16 -46 56 -54 47
-24 -31 -36 -58 -36 -81 0 -22 -10 -33 -57 -61 -41 -24 -63 -32 -75 -26 -9 5
-37 6 -62 3 -26 -4 -51 -2 -58 3 -7 6 -33 13 -58 16 -45 6 -107 28 -123 44 -5
4 -12 8 -17 8 -5 0 -23 11 -41 25 -19 14 -56 32 -83 40 -62 19 -72 48 -23 70
18 8 37 14 42 15 19 0 105 38 105 46 0 4 17 13 38 20 36 12 61 34 106 94 49
67 72 195 47 265 -9 25 -20 48 -24 51 -5 4 -14 17 -21 30 -15 30 -96 92 -162
124 -86 41 -171 32 -237 -26 -7 -5 -28 -18 -47 -27 -27 -13 -42 -32 -66 -82
-54 -112 -58 -124 -55 -175 1 -27 -3 -65 -8 -83 -8 -27 -6 -41 9 -69 11 -20
17 -40 14 -44 -3 -5 2 -19 10 -31 8 -13 18 -40 21 -60 4 -21 12 -38 17 -38 5
0 8 -5 6 -11 -5 -16 -74 -37 -116 -37 -21 1 -55 -4 -77 -10 -34 -9 -105 -8
-167 1 -10 2 -24 11 -31 21 -7 10 -20 16 -28 14 -17 -4 -97 42 -123 71 -10 11
-22 18 -27 16 -9 -6 -112 15 -119 25 -3 3 -26 12 -53 20 -26 7 -50 17 -53 21
-3 5 -16 9 -30 9 -13 0 -33 5 -44 10 -11 6 -29 15 -40 20 -11 5 -30 10 -42 10
-13 0 -36 7 -52 15 -15 8 -34 15 -42 15 -7 0 -18 9 -23 19 -19 36 89 141 145
141 6 0 17 6 23 13 6 8 30 19 53 27 24 7 50 15 58 18 8 4 31 7 50 8 147 6 179
5 197 -4 14 -8 23 -8 30 -1 8 8 26 -5 61 -41 56 -57 78 -59 68 -4 -12 62 -31
85 -85 104 -28 9 -51 14 -51 11 0 -3 -4 -1 -8 6 -6 9 -32 8 -112 -3 -58 -8
-119 -18 -137 -23 -17 -5 -34 -7 -37 -4 -3 3 -12 0 -21 -7 -8 -7 -34 -14 -58
-16 -23 -2 -43 -8 -45 -14 -2 -5 -13 -10 -25 -10 -12 -1 -40 -14 -62 -30 -22
-16 -57 -41 -78 -55 -45 -31 -51 -44 -43 -90 8 -40 60 -105 84 -105 8 0 38
-11 67 -25 28 -14 64 -27 81 -29 38 -5 215 -65 231 -78 7 -5 18 -8 25 -5 11 3
134 -53 177 -82 25 -17 -160 -13 -193 4 -22 12 -32 12 -42 4 -11 -9 -18 -9
-28 0 -16 13 -166 16 -210 3 -60 -17 -28 -90 57 -130 24 -11 49 -27 56 -36 8
-9 22 -16 33 -16 10 0 21 -6 24 -14 3 -8 15 -14 27 -15 54 -3 95 -8 103 -13 5
-3 68 -5 141 -4 102 1 135 5 150 17 10 8 30 20 45 27 35 14 68 80 47 93 -12 8
-11 12 5 24 11 8 28 16 38 16 52 4 79 8 143 23 87 20 138 13 211 -28 31 -17
66 -37 80 -44 13 -7 24 -17 24 -23 0 -5 8 -9 19 -9 10 0 24 -6 30 -14 6 -7 29
-16 50 -20 20 -3 46 -15 56 -26 10 -11 24 -19 30 -16 7 2 40 -2 75 -9 67 -14
210 -16 210 -3 0 4 8 8 19 8 10 0 24 7 31 15 7 8 20 15 30 15 9 0 27 9 40 20
29 25 46 25 53 1 3 -12 14 -19 28 -20 13 0 66 -3 118 -6 82 -5 99 -3 138 16
37 18 55 21 105 15 34 -3 66 -10 72 -15 25 -20 142 -29 336 -26 258 4 283 8
378 54 41 20 102 92 102 120 0 12 4 29 9 39 19 36 26 116 15 152 -8 22 -8 37
-2 41 6 4 6 13 0 25 -16 31 -36 78 -38 89 0 6 -4 19 -8 30 -10 26 -13 38 -14
49 0 4 -18 27 -39 50 -22 22 -46 56 -53 75 -8 19 -33 55 -57 80 -24 24 -43 47
-43 51 0 3 -29 23 -64 43 -53 31 -78 39 -137 44 -59 5 -71 4 -67 -8z m-1338
-100 c34 -11 68 -29 76 -38 8 -9 23 -20 34 -24 14 -6 16 -10 7 -21 -10 -11 -8
-16 8 -21 11 -3 30 -18 43 -33 19 -23 23 -38 21 -92 -3 -110 -9 -124 -83 -194
-38 -35 -78 -67 -89 -71 -12 -3 -21 -11 -21 -16 0 -5 -8 -9 -19 -9 -10 0 -35
-7 -56 -16 -21 -8 -61 -17 -90 -19 -43 -4 -55 -1 -61 13 -4 9 -6 20 -6 25 1 4
-3 7 -9 7 -14 0 -55 51 -51 63 1 5 -2 15 -9 23 -18 22 -14 202 6 242 9 17 20
32 25 32 4 0 11 11 14 25 4 14 12 25 19 25 8 0 20 15 28 32 8 18 23 35 34 37
11 2 26 12 32 22 12 16 32 24 72 28 8 0 42 -8 75 -20z m-1030 -704 c17 -9 33
-12 40 -7 6 5 34 7 61 5 28 -3 61 -4 75 -4 108 0 154 0 156 -2 1 -1 5 -14 9
-28 4 -18 2 -26 -7 -26 -7 -1 -38 -9 -68 -18 -57 -18 -178 -21 -194 -5 -5 5
-17 5 -28 -1 -26 -14 -87 6 -172 54 -22 12 -41 27 -43 34 -6 18 136 16 171 -2z"/>
<path d="M2695 1631 c-19 -14 -34 -33 -32 -41 1 -8 -6 -23 -15 -32 -25 -25
-27 -60 -8 -185 7 -46 17 -83 22 -83 5 0 8 -6 6 -12 -3 -13 3 -22 67 -111 17
-23 36 -54 42 -69 7 -16 19 -28 28 -28 8 0 15 -5 15 -10 0 -6 30 -40 68 -75
57 -55 69 -62 81 -50 12 11 12 19 1 45 -7 17 -23 38 -36 46 -12 8 -34 32 -48
53 -15 21 -38 43 -52 49 -13 7 -29 23 -34 37 -5 14 -14 25 -19 25 -16 0 -81
148 -96 214 -13 63 -5 143 18 161 6 6 24 26 39 46 26 35 26 37 8 42 -12 3 -33
-6 -55 -22z"/>
<path d="M8706 1414 c-28 -12 -64 -29 -81 -38 -43 -23 -82 -20 -108 8 -24 25
-114 46 -203 46 -47 0 -51 -2 -74 -39 -14 -22 -33 -42 -44 -45 -10 -2 -15 -10
-11 -16 4 -6 0 -21 -8 -34 -8 -12 -20 -39 -25 -60 -11 -37 -10 -38 24 -52 19
-8 39 -12 44 -9 9 6 18 38 24 92 6 42 15 56 32 49 14 -6 28 10 29 33 0 21 54
37 77 22 10 -6 23 -11 29 -11 6 0 32 -14 59 -31 34 -22 52 -43 68 -79 12 -26
25 -51 31 -54 26 -16 50 17 67 89 9 39 19 46 80 68 63 22 301 32 343 14 14 -6
31 -11 36 -12 66 -7 216 -52 226 -67 3 -5 12 -11 20 -12 29 -6 71 -28 146 -78
23 -15 46 -28 51 -28 6 0 23 -11 39 -24 85 -70 193 -100 230 -63 17 17 10 37
-13 37 -8 0 -37 12 -64 26 -27 14 -53 23 -58 20 -6 -3 -15 1 -22 9 -7 8 -18
15 -25 15 -7 0 -29 11 -49 25 -20 13 -36 22 -36 20 0 -2 -12 7 -26 20 -15 14
-31 25 -36 25 -5 0 -25 11 -45 24 -19 14 -42 22 -49 19 -8 -3 -20 -1 -27 5
-25 19 -164 65 -227 73 -36 5 -74 14 -85 20 -11 5 -80 11 -154 12 -117 2 -140
-1 -185 -19z"/>
<path d="M6300 1305 c-94 -17 -134 -50 -143 -115 -7 -51 22 -100 59 -100 13 0
26 -4 29 -10 7 -12 35 -13 53 -2 9 6 10 16 1 40 -11 31 -19 36 -47 33 -35 -5
-54 47 -27 74 57 57 193 50 256 -14 31 -32 50 -44 114 -76 46 -23 51 -23 62
-8 17 22 7 33 -80 91 -84 57 -83 56 -127 72 -66 23 -95 26 -150 15z"/>
<path d="M3625 896 c-17 -12 -17 -14 1 -44 17 -30 22 -32 74 -32 30 -1 66 -7
79 -14 18 -10 29 -11 42 -3 13 8 24 8 42 0 14 -7 33 -10 43 -8 11 3 35 -4 54
-15 19 -11 49 -26 67 -34 17 -9 34 -25 38 -36 4 -11 10 -18 14 -16 10 7 86
-64 95 -88 3 -10 12 -16 20 -13 17 7 40 -18 31 -33 -3 -5 -1 -10 5 -10 6 0 15
-11 20 -25 5 -14 18 -29 28 -33 32 -12 102 -78 102 -95 0 -10 7 -17 16 -17 24
0 74 -39 74 -59 0 -9 5 -22 12 -29 17 -17 58 26 58 61 0 25 -19 57 -34 57 -9
0 -46 39 -46 48 0 4 -16 18 -35 31 -19 13 -35 30 -35 37 0 7 -9 18 -20 24 -12
6 -25 22 -30 36 -6 15 -17 24 -30 24 -14 0 -24 10 -31 30 -6 17 -15 30 -19 30
-5 0 -25 16 -44 35 -20 19 -43 35 -51 35 -9 0 -21 11 -27 25 -6 14 -19 25 -28
25 -9 0 -37 14 -63 30 -32 20 -61 30 -87 30 -21 0 -41 4 -44 9 -3 5 -37 9 -75
10 -37 0 -84 7 -102 15 -55 22 -95 26 -114 12z"/>
</g>
</svg>
